<svg width="50" height="48" viewBox="0 0 50 48" fill="none" xmlns="http://www.w3.org/2000/svg">
<g clip-path="url(#clip0_27_233)">
<path d="M34.9438 0.024021C34.8375 -0.089979 31.0094 0.0690211 27.6781 3.54002C24.3469 7.00802 24.8594 10.986 24.9344 11.088C25.0094 11.19 29.6844 11.349 32.6688 7.31402C35.6531 3.27902 35.05 0.141021 34.9438 0.024021ZM45.3 35.223C45.15 34.935 38.0344 31.521 38.6969 24.957C39.3594 18.39 43.9313 16.59 44.0031 16.395C44.075 16.2 42.1375 14.025 40.0844 12.924C38.5769 12.1478 36.9085 11.703 35.2 11.622C34.8625 11.613 33.6906 11.337 31.2813 11.97C29.6938 12.387 26.1156 13.737 25.1313 13.791C24.1438 13.845 21.2063 12.225 18.0469 11.796C16.025 11.421 13.8813 12.189 12.3469 12.78C10.8156 13.368 7.90314 15.042 5.86564 19.491C3.82814 23.937 4.89376 30.981 5.65626 33.171C6.41876 35.358 7.60939 38.943 9.63439 41.559C11.4344 44.511 13.8219 46.56 14.8188 47.256C15.8156 47.952 18.6281 48.414 20.5781 47.457C22.1469 46.533 24.9781 46.002 26.0969 46.041C27.2125 46.08 29.4125 46.503 31.6656 47.658C33.45 48.249 35.1375 48.003 36.8281 47.343C38.5188 46.68 40.9656 44.166 43.8219 39.069C44.9063 36.699 45.4 35.418 45.3 35.223Z" fill="black"/>
<path d="M34.9438 0.024021C34.8375 -0.089979 31.0094 0.0690211 27.6781 3.54002C24.3469 7.00802 24.8594 10.986 24.9344 11.088C25.0094 11.19 29.6844 11.349 32.6688 7.31402C35.6531 3.27902 35.05 0.141021 34.9438 0.024021ZM45.3 35.223C45.15 34.935 38.0344 31.521 38.6969 24.957C39.3594 18.39 43.9313 16.59 44.0031 16.395C44.075 16.2 42.1375 14.025 40.0844 12.924C38.5769 12.1478 36.9085 11.703 35.2 11.622C34.8625 11.613 33.6906 11.337 31.2813 11.97C29.6938 12.387 26.1156 13.737 25.1313 13.791C24.1438 13.845 21.2063 12.225 18.0469 11.796C16.025 11.421 13.8813 12.189 12.3469 12.78C10.8156 13.368 7.90314 15.042 5.86564 19.491C3.82814 23.937 4.89376 30.981 5.65626 33.171C6.41876 35.358 7.60939 38.943 9.63439 41.559C11.4344 44.511 13.8219 46.56 14.8188 47.256C15.8156 47.952 18.6281 48.414 20.5781 47.457C22.1469 46.533 24.9781 46.002 26.0969 46.041C27.2125 46.08 29.4125 46.503 31.6656 47.658C33.45 48.249 35.1375 48.003 36.8281 47.343C38.5188 46.68 40.9656 44.166 43.8219 39.069C44.9063 36.699 45.4 35.418 45.3 35.223Z" fill="black"/>
</g>
<defs>
<clipPath id="clip0_27_233">
<rect width="50" height="48" fill="white"/>
</clipPath>
</defs>
</svg>
